<?xml version="1.0" encoding="utf-8"?>
<!-- Generator: Adobe Illustrator 24.0.3, SVG Export Plug-In . SVG Version: 6.00 Build 0)  -->
<svg version="1.1" baseProfile="tiny" xmlns="http://www.w3.org/2000/svg" xmlns:xlink="http://www.w3.org/1999/xlink" x="0px"
	 y="0px" width="612px" height="792px" viewBox="0 0 612 792" xml:space="preserve">
<g id="Layer_1" display="none">
	<image display="inline" width="3024" height="4032" xlink:href="IMG_0363.JPG"  transform="matrix(0.2727 0 0 0.2727 -106 -154)">
	</image>
</g>
<g id="Layer_2">
</g>
<g id="shoe_1" display="none">
	
		<path display="inline" fill="none" stroke="#000000" stroke-width="3" stroke-linecap="round" stroke-linejoin="round" stroke-miterlimit="10" d="
		M389.78,519.45c0,0,3.08,0.13,16.32,5.13c11.06,4.18,18.25,7.95,18.25,7.95s-7.36-3.57-4.11-11.96c3.25-8.39,4.16-7.6,4.16-7.6"/>
	
		<path display="inline" fill="none" stroke="#000000" stroke-width="3" stroke-linecap="round" stroke-linejoin="round" stroke-miterlimit="10" d="
		M395.61,503.05c0,0-0.89-3.32-3.65,7.67c-1.09,4.33-0.3,13.62-0.3,13.62"/>
	
		<path display="inline" fill="none" stroke="#000000" stroke-width="3" stroke-linecap="round" stroke-linejoin="round" stroke-miterlimit="10" d="
		M419.91,584.02"/>
	
		<path display="inline" fill="none" stroke="#000000" stroke-width="3" stroke-linecap="round" stroke-linejoin="round" stroke-miterlimit="10" d="
		M424.34,532.53c0,0,7.02,1.05,6.38,8.18c-0.64,7.13,2.57,40.29-17.93,47.81c-20.5,7.52-78.47-28.62-96.88-49.74
		c-15.26-17.49-16.38-18.42-28.47-35.15"/>
	
		<path display="inline" fill="none" stroke="#000000" stroke-width="3" stroke-linecap="round" stroke-linejoin="round" stroke-miterlimit="10" d="
		M287.45,503.63c0,0,10.61-19.51,30.89-14.45c10.98,2.74,13.34,14.37,31.47,24.67c18.13,10.3,41.61,5.31,41.61,5.31"/>
	
		<path display="inline" stroke="#000000" stroke-width="3" stroke-linecap="round" stroke-linejoin="round" stroke-miterlimit="10" d="
		M385.98,546.77c0,0-8.47,8.43-3.66,11.76s32.99-0.49,32.99-0.49s-23.43-0.23-26.24-2.17C385.08,553.12,385.98,546.77,385.98,546.77
		z"/>
	
		<path display="inline" fill="none" stroke="#000000" stroke-width="3" stroke-linecap="round" stroke-linejoin="round" stroke-miterlimit="10" d="
		M287.45,503.63c0,0,15.22,10.76,23.44,20.71c12.84,15.53,21.85,22.88,29.86,29.54c16.14,13.4,37.76,22.98,72.05,34.64"/>
</g>
<g id="shoe2">
	<g id="XMLID_3_">
		<g>
			<path d="M186.84,311.98c-0.79,0.65-26.17,21.79-40.98,30.89c-19.51,11.98-32.13,16.76-46.15,13.05
				c-8.28-2.19-10.04-9.38-10.04-9.38c6.92,0.77,15.01,0.69,22.65-1.75c14.01-4.46,29.07-11.48,43.76-18.04
				C166.76,321.99,177.66,316.64,186.84,311.98z"/>
			<path d="M380.69,561.77c-0.23,0.83-7.9,27.37-12.81,30.38c-4.98,3.07-9.29-8.08-9.29-8.08s5.45,3.38,9.57,0.83
				C371.02,583.14,380.4,562.41,380.69,561.77z"/>
			<path d="M272.17,576.47c2.8-0.9,14.97-16.52,15.79-17.57c-0.74,1.32-12.78,22.38-17.59,23.92c-4.98,1.58-6.31-9.24-6.31-9.24
				S268.05,577.79,272.17,576.47z"/>
			<path d="M233.09,224.07c6.18,1.55,9.94,7.82,8.39,14c-0.45,1.78-1.29,3.36-2.41,4.67c0,0.02-0.01,0.03-0.03,0.04
				c-3.38,2.83-7.94,4.18-12.55,3.38c-5.58-1.94-8.86-7.86-7.4-13.7C220.64,226.28,226.91,222.52,233.09,224.07z"/>
			<path d="M172.44,267.84c0.41,3.2-0.92,6.02-2.99,6.29c-2.06,0.26-4.07-2.12-4.49-5.32c-0.41-3.21,0.93-6.02,2.99-6.29
				C170.01,262.25,172.02,264.63,172.44,267.84z"/>
			<path d="M122.02,196.51c6.03,1.52,9.7,7.64,8.19,13.67c-1.51,6.04-7.63,9.7-13.67,8.19c-6.03-1.51-9.7-7.63-8.19-13.67
				C109.86,198.67,115.98,195,122.02,196.51z"/>
			<path d="M123.75,250.24c1.32,1.61,0.38,4.57-2.12,6.63c-2.49,2.06-5.58,2.42-6.91,0.82c-1.32-1.61-0.37-4.58,2.12-6.63
				C119.33,249,122.43,248.64,123.75,250.24z"/>
		</g>
		<g>
			<path fill="none" stroke="#FFFFFF" stroke-width="3" stroke-linecap="round" stroke-linejoin="round" stroke-miterlimit="10" d="
				M373.76,329.52c0,0-9.75-10.55-22.54-19.55c-7.66-5.38-16.41-10.21-24.82-11.88c-22.47-4.48-46.39,3.03-46.39,3.03"/>
			<path fill="none" stroke="#FFFFFF" stroke-width="3" stroke-linecap="round" stroke-linejoin="round" stroke-miterlimit="10" d="
				M405.59,296.64c0,0,0-0.01,0.01-0.02v-0.01c0.25-0.71,5.65-16.4-1.62-18.79c-7.45-2.44-16.1,15.6-22.62,21.38
				c-11.1,9.83-30.14,10.77-30.14,10.77"/>
			<path fill="none" stroke="#FFFFFF" stroke-width="3" stroke-linecap="round" stroke-linejoin="round" stroke-miterlimit="10" d="
				M418.83,301.88c2.11-3.44,5.76-10.85,0.44-13.91c-6.85-3.94-13.32,8-13.67,8.64"/>
			<path fill="none" stroke="#FFFFFF" stroke-width="3" stroke-linecap="round" stroke-linejoin="round" stroke-miterlimit="10" d="
				M417.63,303.69c0,0,0.01-0.01,0.02-0.04c0.13-0.16,0.58-0.8,1.16-1.74"/>
			<path fill="none" stroke="#FFFFFF" stroke-width="3" stroke-linecap="round" stroke-linejoin="round" stroke-miterlimit="10" d="
				M418.81,301.91c-0.65,0.93-1.06,1.59-1.16,1.74"/>
			<path fill="none" stroke="#FFFFFF" stroke-width="3" stroke-linecap="round" stroke-linejoin="round" stroke-miterlimit="10" d="
				M418.81,301.91c0-0.01,0.01-0.02,0.02-0.03"/>
			<path fill="none" stroke="#FFFFFF" stroke-width="3" stroke-linecap="round" stroke-linejoin="round" stroke-miterlimit="10" d="
				M429.43,309.5c0.49-0.64,11.74-15.46,4.45-17.85c-5.78-1.9-12.39,6.43-15.05,10.23"/>
			<path fill="none" stroke="#FFFFFF" stroke-width="3" stroke-linecap="round" stroke-linejoin="round" stroke-miterlimit="10" d="
				M441.32,317.1c0,0,0.01-0.01,0.02-0.01v-0.01c0.44-0.54,9.71-11.94,3.64-14.59c-6.06-2.65-15.06,6.5-15.55,7.01
				c-0.01,0.01-0.02,0.02-0.02,0.02"/>
			<path fill="none" stroke="#FFFFFF" stroke-width="3" stroke-linecap="round" stroke-linejoin="round" stroke-miterlimit="10" d="
				M452.57,329.64c0.51-0.61,11.09-13.31,4.13-16.74c-6.9-3.4-14.88,3.74-15.36,4.18"/>
			<path fill="none" stroke="#FFFFFF" stroke-width="3" stroke-linecap="round" stroke-linejoin="round" stroke-miterlimit="10" d="
				M441.56,379.76c0,0,0,0,0-0.01c0.86-0.99,46.97-54.24,29.73-54.85c-9.62-0.34-18.21,4.45-18.72,4.74
				c-0.01,0.01-0.02,0.01-0.02,0.01"/>
			<path fill="none" stroke="#FFFFFF" stroke-width="3" stroke-linecap="round" stroke-linejoin="round" stroke-miterlimit="10" d="
				M447.02,512.44c0,0,0,0,0.01,0.01c0.01,0,0.01,0,0.02,0.01c0.82,0.48,17.34,10.4,8.08,20.43c-9.48,10.28-26.53,0.25-26.53,0.25
				s12.72,13.55,2.02,19.5c-6.42,3.57-49.34-10.09-82.63-38.99c-22.19-19.26-40.1-45.29-40.08-77.5"/>
			<path fill="none" stroke="#FFFFFF" stroke-width="3" stroke-linecap="round" stroke-linejoin="round" stroke-miterlimit="10" d="
				M462.19,495.53c0,0,0.01,0,0.04,0.01c0.81,0.36,13.29,5.94,6.86,13.8c-6.47,7.91-21.28,3.35-22.04,3.12"/>
			<path fill="none" stroke="#FFFFFF" stroke-width="3" stroke-linecap="round" stroke-linejoin="round" stroke-miterlimit="10" d="
				M480.36,446c0,0,0.01,0,0.03-0.01c0.02,0,0.05-0.01,0.1-0.03c0.34-0.09,1.27-0.34,2.63-0.66c8.49-2.02,33.42-6.9,29.4,6.45
				c-4.83,16.06-38.13,20.37-38.13,20.37s27.07,6.78,20.16,18.28c-6.76,11.26-31.25,5.4-32.32,5.14"/>
			<path fill="none" stroke="#FFFFFF" stroke-width="3" stroke-linecap="round" stroke-linejoin="round" stroke-miterlimit="10" d="
				M489.58,416.08c0,0,0.01,0,0.03-0.01c1.01-0.49,27.51-12.92,30.16,3.55c2.28,14.16-27.33,23.2-36.65,25.68
				c-1.37,0.37-2.3,0.59-2.63,0.66"/>
			<path fill="none" stroke="#FFFFFF" stroke-width="3" stroke-linecap="round" stroke-linejoin="round" stroke-miterlimit="10" d="
				M483.23,395.51c0,0,0.02-0.02,0.07-0.04c0.01-0.01,0.02-0.01,0.03-0.02c1.71-1.01,25.77-15.02,29.55-5.75
				c3.84,9.42-22.26,25.73-23.27,26.37"/>
			<path fill="none" stroke="#FFFFFF" stroke-width="3" stroke-linecap="round" stroke-linejoin="round" stroke-miterlimit="10" d="
				M365.75,372.97c0,0,42.45,11.36,75.81,6.78c8.68-1.18,16.74-3.44,23.28-7.27c31.68-18.53,41.46-20.09,47.47-10.34
				c5.74,9.33-26.93,31.9-28.98,33.31"/>
			<path fill="none" stroke="#FFFFFF" stroke-width="3" stroke-linecap="round" stroke-linejoin="round" stroke-miterlimit="10" d="
				M266.36,311.9c0,0-1.99,31.63,12.09,37.46"/>
			<path fill="none" stroke="#FFFFFF" stroke-width="3" stroke-linecap="round" stroke-linejoin="round" stroke-miterlimit="10" d="
				M107.16,192.51c0,0-0.15-7.88,4.4-11.53c3.94-3.17,11.04-4.17,11.04-4.17s80.43-80.35,164.03,0.53
				c44.53,43.08,14,99.65-6.37,122.81c-0.2,0.22-0.39,0.44-0.6,0.66c-4.27,4.71-8.98,8.35-13.3,11.09
				c-8.1,5.14-14.83,7.12-14.83,7.12"/>
			<path fill="none" stroke="#FFFFFF" stroke-width="3" stroke-linecap="round" stroke-linejoin="round" stroke-miterlimit="10" d="
				M197.47,326.19c-6.25,2.89-13.25,8.16-20.85,14.26c-9.38,7.52-19.67,16.3-30.64,23.45c-15.49,10.1-32.32,16.93-49.75,12.3
				c-37.22-9.91-24.35-33.73-24.35-33.73s-44.45-14.59-39.91-33.59c4.49-18.82,29.37-25.38,42.67-33.56
				c11.54-7.11,21.96-17.7,21.96-17.7s-4.25-1.88-2.29-9.72c1.97-7.85,7.82-7.75,7.82-7.75l3.2-24.66"/>
			<path fill="none" stroke="#FFFFFF" stroke-width="3" stroke-linecap="round" stroke-linejoin="round" stroke-miterlimit="10" d="
				M227.02,322.67l-17.77,1.35c0,0-5.61,0.36-9.57,1.41c-0.81,0.22-1.55,0.46-2.16,0.74"/>
			<path fill="none" stroke="#FFFFFF" stroke-width="3" stroke-linecap="round" stroke-linejoin="round" stroke-miterlimit="10" d="
				M215.83,365.03c0,0-2.77-5.01-5.2-15.98c-0.92-4.17-1.35-8.79-1.51-12.91c-0.27-6.72,0.13-12.12,0.13-12.12"/>
			<path fill="none" stroke="#FFFFFF" stroke-width="3" stroke-linecap="round" stroke-linejoin="round" stroke-miterlimit="10" d="
				M190.12,453.11c0.4,1.2,0.83,2.41,1.29,3.62c10.56,28,33.86,47.26,56.09,57.21c8.01,3.59,15.88,5.97,22.97,7.11
				c2.84,0.46,5.58,0.81,8.18,1.1c14.17,1.52,24.21,0.71,24.21,0.71s-1.1,8.99,5.4,10.62c1.38,0.35,3.02,0.43,4.8,0.31
				c6.6-0.42,15.26-3.56,21.04-6.04c2.2-0.95,4.13-2.23,5.8-3.64c5.26-4.45,7.94-10.14,8.09-10.46c0-0.01,0-0.01,0-0.01"/>
			<path fill="none" stroke="#FFFFFF" stroke-width="3" stroke-linecap="round" stroke-linejoin="round" stroke-miterlimit="10" d="
				M209.12,336.14c0,0-3.19,4.29-7.3,11.86c-10.51,19.34-27.04,60.06-11.7,105.1"/>
			<path fill="none" stroke="#FFFFFF" stroke-width="3" stroke-linecap="round" stroke-linejoin="round" stroke-miterlimit="10" d="
				M186.84,311.98c-9.18,4.66-20.08,10.01-30.76,14.77c-14.69,6.56-29.75,13.58-43.76,18.04c-7.64,2.44-15.73,2.52-22.65,1.75
				c-10.15-1.12-17.79-4.07-17.79-4.07"/>
			<path fill="none" stroke="#FFFFFF" stroke-width="3" stroke-linecap="round" stroke-linejoin="round" stroke-miterlimit="10" d="
				M210.1,299.72c0,0-9.78,5.4-23.24,12.24"/>
			<path fill="none" stroke="#FFFFFF" stroke-width="3" stroke-linecap="round" stroke-linejoin="round" stroke-miterlimit="10" d="
				M226.49,246.16c-0.37-0.06-0.75-0.14-1.13-0.24c-8.28-2.07-13.31-10.46-11.23-18.74c2.07-8.27,10.46-13.3,18.74-11.23
				c8.27,2.08,13.3,10.47,11.22,18.74c-0.82,3.27-2.62,6.04-5.02,8.05"/>
			<path fill="none" stroke="#FFFFFF" stroke-width="3" stroke-linecap="round" stroke-linejoin="round" stroke-miterlimit="10" d="
				M226.49,246.16c-5.58-1.94-8.86-7.86-7.4-13.7c1.55-6.18,7.82-9.94,14-8.39c6.18,1.55,9.94,7.82,8.39,14
				c-0.45,1.78-1.29,3.36-2.41,4.67c0,0.02-0.01,0.03-0.03,0.04c-2.76,3.21-7.18,4.77-11.56,3.67
				C227.14,246.37,226.81,246.27,226.49,246.16z"/>
			<path fill="none" stroke="#FFFFFF" stroke-width="3" stroke-linecap="round" stroke-linejoin="round" stroke-miterlimit="10" d="
				M116.84,251.06c-2.49,2.05-3.44,5.02-2.12,6.63c1.33,1.6,4.42,1.24,6.91-0.82c2.5-2.06,3.44-5.02,2.12-6.63
				C122.43,248.64,119.33,249,116.84,251.06z"/>
			<path fill="none" stroke="#FFFFFF" stroke-width="3" stroke-linecap="round" stroke-linejoin="round" stroke-miterlimit="10" d="
				M172.44,267.84c-0.42-3.21-2.43-5.59-4.49-5.32c-2.06,0.27-3.4,3.08-2.99,6.29c0.42,3.2,2.43,5.58,4.49,5.32
				C171.52,273.86,172.85,271.04,172.44,267.84z"/>
			<path fill="none" stroke="#FFFFFF" stroke-width="3" stroke-linecap="round" stroke-linejoin="round" stroke-miterlimit="10" d="
				M107.16,192.51c-2.71,2.05-4.76,5.01-5.65,8.55c-1.33,5.34,0.28,10.72,3.82,14.43c1.94,2.04,4.47,3.57,7.41,4.31
				c8.28,2.07,16.67-2.95,18.74-11.23c2.07-8.27-2.95-16.66-11.23-18.74C115.53,188.65,110.76,189.78,107.16,192.51z"/>
			<path fill="none" stroke="#FFFFFF" stroke-width="3" stroke-linecap="round" stroke-linejoin="round" stroke-miterlimit="10" d="
				M108.35,204.7c-1.51,6.04,2.16,12.16,8.19,13.67c6.04,1.51,12.16-2.15,13.67-8.19c1.51-6.03-2.16-12.15-8.19-13.67
				C115.98,195,109.86,198.67,108.35,204.7z"/>
			<path fill="none" stroke="#FFFFFF" stroke-width="3" stroke-linecap="round" stroke-linejoin="round" stroke-miterlimit="10" d="
				M145.93,428.3c0,0-0.15,0.14-0.42,0.38c-0.04,0.03-0.08,0.07-0.12,0.11c-2.8,2.58-15.5,14.85-10.98,21.37
				c5.07,7.31,17.26,0.01,17.26,0.01s-17.27,14.95-8.2,21.25c9.06,6.3,37.3-22.59,37.3-22.59s-2.78,9.95,1.49,11.31
				c4.2,1.33,7.76-6.8,7.86-7.03c0-0.01,0-0.01,0-0.01"/>
			<path fill="none" stroke="#FFFFFF" stroke-width="3" stroke-linecap="round" stroke-linejoin="round" stroke-miterlimit="10" d="
				M140.77,413.22c-0.59,0.42-15.65,11.2-13.53,20.76c1.93,8.7,15.29-2.64,18.15-5.19"/>
			<path fill="none" stroke="#FFFFFF" stroke-width="3" stroke-linecap="round" stroke-linejoin="round" stroke-miterlimit="10" d="
				M160.6,374.2c0,0-0.01,0-0.04-0.01c-1.08-0.15-22.51-3.13-25.43,4.22c-3.89,9.77,13,12.23,13,12.23s-31.9,14.32-29.73,20.62
				c2.12,6.18,21.66,2.1,22.37,1.96c0.01-0.01,0.02-0.01,0.02-0.01"/>
			<path fill="none" stroke="#FFFFFF" stroke-width="3" stroke-linecap="round" stroke-linejoin="round" stroke-miterlimit="10" d="
				M146.04,363.99c1.77,5.18,13.78,9.91,14.52,10.2"/>
			
				<line fill="none" stroke="#FFFFFF" stroke-width="3" stroke-linecap="round" stroke-linejoin="round" stroke-miterlimit="10" x1="201.82" y1="348" x2="176.7" y2="340.56"/>
			<path fill="none" stroke="#FFFFFF" stroke-width="3" stroke-linecap="round" stroke-linejoin="round" stroke-miterlimit="10" d="
				M102.13,240.15c0,0,11.35,0.32,14.89-0.87c10.4-3.48,27.28-18.19,41.36-14.66c20.02,5.01,22.59,29.25,29.63,31.02
				c7.04,1.76,32.68,1.94,41.33,19.89c3.65,7.56,5.12,21.13-7.54,36.37c-5.85,7.05-17.31,11.78-22.12,13.53
				c-1.18,0.43-1.97,0.68-2.16,0.74c-0.03,0.01-0.05,0.02-0.05,0.02"/>
			<path fill="none" stroke="#FFFFFF" stroke-width="3" stroke-linecap="round" stroke-linejoin="round" stroke-miterlimit="10" d="
				M216.56,202.95c0,0,10.42-9.18,29.14,1.55c12.83,7.35,12.92,21.94,12.92,21.94"/>
			<path fill="none" stroke="#FFFFFF" stroke-width="3" stroke-linecap="round" stroke-linejoin="round" stroke-miterlimit="10" d="
				M313.13,534.7c0,0,3.22,17,12.3,19.81c1.84,0.57,4.35,1.26,7.16,2c2.11,0.55,4.39,1.13,6.71,1.71
				c9.83,2.45,20.24,4.84,20.24,4.84s8.48-2.33,11.59-7.62c3.18-5.41,2.53-11.1-2.27-12.36c-5.7-1.5-11.28-2.08-15.25-3.06
				c-1.11-0.27-2.09-0.57-2.91-0.93c-6.15-2.69-10.8-14.98-10.8-14.98"/>
			<path fill="none" stroke="#FFFFFF" stroke-width="3" stroke-linecap="round" stroke-linejoin="round" stroke-miterlimit="10" d="
				M359.54,563.06c-3.09,12.31-12.2,37.18-21.68,45.93s-24.82,13.34-25.54,7.02c-0.72-6.32,4.78-6.85,11.83-19.66
				c7.05-12.82,15.15-38.13,15.15-38.13"/>
			<path fill="none" stroke="#FFFFFF" stroke-width="3" stroke-linecap="round" stroke-linejoin="round" stroke-miterlimit="10" d="
				M89.67,346.54c0,0,1.76,7.19,10.04,9.38c14.02,3.71,26.64-1.07,46.15-13.05c14.81-9.1,40.19-30.24,40.98-30.89
				c0.01-0.01,0.02-0.02,0.02-0.02"/>
			<path fill="none" stroke="#FFFFFF" stroke-width="3" stroke-linecap="round" stroke-linejoin="round" stroke-miterlimit="10" d="
				M332.59,556.54c0,0-3.82,18.33-10.6,25.46c-6.77,7.12-28.01,28.5-35.12,37.61c-2.68,3.43-4.27,7.05-4.84,10.57
				c-1.25,7.57,2.24,14.67,9.87,18.31c8.13,3.88,29.51,13.91,41.42,6.16c11.92-7.75,22.63-28.09,34.89-43.04
				c12.25-14.96,30.84-42.07,32.74-49.65"/>
			<path fill="none" stroke="#FFFFFF" stroke-width="3" stroke-linecap="round" stroke-linejoin="round" stroke-miterlimit="10" d="
				M400.95,561.96c0,0-21.77-36.02-47.34-21.94"/>
			<path fill="none" stroke="#FFFFFF" stroke-width="3" stroke-linecap="round" stroke-linejoin="round" stroke-miterlimit="10" d="
				M380.7,561.75c0,0,0,0.01-0.01,0.02"/>
			<path fill="none" stroke="#FFFFFF" stroke-width="3" stroke-linecap="round" stroke-linejoin="round" stroke-miterlimit="10" d="
				M358.59,584.07c0,0,4.31,11.15,9.29,8.08c4.91-3.01,12.58-29.55,12.81-30.38c-0.29,0.64-9.67,21.37-12.53,23.13
				C364.04,587.45,358.59,584.07,358.59,584.07z"/>
			<path fill="none" stroke="#FFFFFF" stroke-width="3" stroke-linecap="round" stroke-linejoin="round" stroke-miterlimit="10" d="
				M281.95,630.17c0,0-3.73,14.89,4.72,21.61c4.81,3.83,22.73,12.6,32.95,10.85c10.22-1.76,17.17,2.55,38.08-29.87
				c20.92-32.42,51.52-60.23,48.07-65.39c-3.13-4.69-4.82-5.41-4.82-5.41"/>
			<path fill="none" stroke="#FFFFFF" stroke-width="3" stroke-linecap="round" stroke-linejoin="round" stroke-miterlimit="10" d="
				M328.97,514.47c-5.07,4.19-26.11,8.39-26.11,8.39"/>
			<path fill="none" stroke="#FFFFFF" stroke-width="3" stroke-linecap="round" stroke-linejoin="round" stroke-miterlimit="10" d="
				M247.5,513.94c0,0,0.5,2.39,3.83,5.17c2.01,1.67,5.04,3.48,9.59,5c5.93,1.98,13.32,0.73,17.52-0.29
				c2.05-0.51,3.34-0.96,3.34-0.96"/>
			<path fill="none" stroke="#FFFFFF" stroke-width="3" stroke-linecap="round" stroke-linejoin="round" stroke-miterlimit="10" d="
				M132.74,179.47c-2.48-3.13-10.14-2.66-10.14-2.66"/>
			<path fill="none" stroke="#FFFFFF" stroke-width="3" stroke-linecap="round" stroke-linejoin="round" stroke-miterlimit="10" d="
				M253.44,542.66c0,0,0.69,1.32,1.92,2.99c2.71,3.69,8.08,9.11,14.5,5.67c14.45-7.74,6.46-10.19,7.46-18.34
				c0.57-4.68,0.93-7.56,1.12-9.16c0.15-1.18,0.21-1.67,0.21-1.67"/>
			<path fill="none" stroke="#FFFFFF" stroke-width="3" stroke-linecap="round" stroke-linejoin="round" stroke-miterlimit="10" d="
				M251.29,519.69c-0.28,2.2-0.55,5.68-0.55,10.85c0,2.5,1.01,6.48,1.8,9.19c0.5,1.72,0.9,2.93,0.9,2.93"/>
			<path fill="none" stroke="#FFFFFF" stroke-width="3" stroke-linecap="round" stroke-linejoin="round" stroke-miterlimit="10" d="
				M288,558.84c0,0,0,0-0.01,0.01v0.01c0,0-0.01,0.02-0.03,0.03c0,0,0,0,0,0.01"/>
			<path fill="none" stroke="#FFFFFF" stroke-width="3" stroke-linecap="round" stroke-linejoin="round" stroke-miterlimit="10" d="
				M264.06,573.58c0,0,1.33,10.82,6.31,9.24c4.81-1.54,16.85-22.6,17.59-23.92c-0.82,1.05-12.99,16.67-15.79,17.57
				C268.05,577.79,264.06,573.58,264.06,573.58z"/>
			<path fill="none" stroke="#FFFFFF" stroke-width="3" stroke-linecap="round" stroke-linejoin="round" stroke-miterlimit="10" d="
				M269.86,551.32c-6.77,9.29-29.44,33.23-40.24,37.26c-10.81,4.04-22.32-8.79-10.42-14.39c12.81-6.03,34.29-26.72,36.16-28.54
				c0.09-0.08,0.13-0.12,0.13-0.12"/>
			<path fill="none" stroke="#FFFFFF" stroke-width="3" stroke-linecap="round" stroke-linejoin="round" stroke-miterlimit="10" d="
				M252.09,539.86c0,0-13.35,15.56-21.37,19.18s-32.84,14.16-41.82,19.33c-3.39,1.96-5.95,4.46-7.62,7.23
				c-3.61,5.94-3.17,13.13,1.85,18.87c5.35,6.12,19.5,22.09,31.97,19.75c12.46-2.35,28.26-15.71,43.48-24s39.82-24.59,43.98-30.3"/>
			<path fill="none" stroke="#FFFFFF" stroke-width="3" stroke-linecap="round" stroke-linejoin="round" stroke-miterlimit="10" d="
				M181.23,585.54c0,0,0,0.01-0.01,0.02c-0.38,0.53-8.06,11.42-3.53,19.84c2.65,4.91,14.38,18.61,23.4,20.72
				c9.01,2.12,13.25,8.18,41.58-11.77c28.34-19.96,62.35-33.17,61.29-38.73c-0.97-5.05-1.4-5.7-1.4-5.7"/>
			<path fill="none" stroke="#FFFFFF" stroke-width="3" stroke-linecap="round" stroke-linejoin="round" stroke-miterlimit="10" d="
				M277.32,532.98c0,0,11.21,2.67,15.19,9.57c3.98,6.9,12.18,21,10.19,27.11"/>
		</g>
	</g>
</g>
<g id="Layer_6">
</g>
<g id="Layer_5">
</g>
</svg>
